<?xml version="1.0" encoding="UTF-8"?>
<svg version="1.1" xmlns="http://www.w3.org/2000/svg" width="340" height="431">
<path d="M0 0 C1.48623777 0.39148674 2.97093679 0.78884512 4.4543457 1.19091797 C5.30044403 1.41575363 6.14654236 1.64058929 7.01828003 1.87223816 C9.89034581 2.63720463 12.76022025 3.41008131 15.63012695 4.18310547 C17.69701821 4.73574964 19.7639974 5.28806503 21.83105469 5.84008789 C29.53784526 7.90189909 37.24043808 9.97918895 44.94262695 12.05810547 C45.770905 12.28163445 46.59918304 12.50516342 47.45256042 12.735466 C74.95426876 20.15781521 102.44983488 27.6028055 129.94262695 35.05810547 C130.27262695 41.65810547 130.60262695 48.25810547 130.94262695 55.05810547 C136.82041197 56.66224652 136.82041197 56.66224652 142.70019531 58.2590332 C143.42859619 58.45956299 144.15699707 58.66009277 144.9074707 58.86669922 C145.65633545 59.07093506 146.4052002 59.2751709 147.17675781 59.4855957 C148.94262695 60.05810547 148.94262695 60.05810547 149.94262695 61.05810547 C150.09609116 63.49374113 150.18481807 65.90231629 150.23071289 68.34082031 C150.24852814 69.10358276 150.26634338 69.86634521 150.28469849 70.65222168 C150.43969933 77.72137662 150.52673686 84.79194152 150.59469223 91.86241722 C150.64076801 96.61068861 150.70790703 101.35647567 150.82739258 106.10351562 C150.94255472 110.69557722 151.0026589 115.2854148 151.02521515 119.87883377 C151.04290941 121.62284741 151.07955872 123.3667836 151.13622284 125.10996628 C151.59941032 140.07484774 151.59941032 140.07484774 146.32757092 146.2994585 C143.50658713 149.14617269 140.72493101 151.60092035 136.79092407 152.61004639 C134.66153947 152.43770714 133.06957102 151.91164892 131.0949707 151.10107422 C129.62632547 150.63067434 128.1573985 150.16115342 126.68823242 149.69238281 C125.92097839 149.42230408 125.15372437 149.15222534 124.36322021 148.8739624 C120.98225397 147.73441335 117.54849986 146.86806459 114.09268188 145.98709106 C111.37939886 145.29520496 108.67523243 144.57503361 105.97192383 143.84521484 C102.26988027 142.84632458 98.56678449 141.85157104 94.86254883 140.86083984 C93.07796127 140.3813285 91.29345289 139.90152237 89.5090332 139.42138672 C88.67586075 139.19848465 87.84268829 138.97558258 86.98426819 138.7459259 C81.17317067 137.17337732 81.17317067 137.17337732 78.94262695 136.05810547 C78.94262695 122.52810547 78.94262695 108.99810547 78.94262695 95.05810547 C75.97262695 94.72810547 73.00262695 94.39810547 69.94262695 94.05810547 C68.18021844 93.68850721 66.42561032 93.27589943 64.68920898 92.79882812 C63.76439728 92.54831696 62.83958557 92.29780579 61.88674927 92.03970337 C60.91776703 91.76991669 59.94878479 91.50013 58.95043945 91.22216797 C57.92385223 90.94214935 56.89726501 90.66213074 55.83956909 90.37362671 C52.58048408 89.48310831 49.32405243 88.58329486 46.06762695 87.68310547 C43.88941173 87.08612995 41.71102764 86.48977023 39.5324707 85.89404297 C34.69578296 84.57025557 29.86073933 83.2406531 25.02713013 81.90567017 C20.334215 80.61614347 15.63799793 79.33866119 10.94262695 78.05810547 C10.94262695 139.10810547 10.94262695 200.15810547 10.94262695 263.05810547 C33.05262695 268.99810547 55.16262695 274.93810547 77.94262695 281.05810547 C78.27262695 265.87810547 78.60262695 250.69810547 78.94262695 235.05810547 C75.97262695 234.72810547 73.00262695 234.39810547 69.94262695 234.05810547 C67.461063 233.50893859 64.99080415 232.90555322 62.53637695 232.24560547 C61.88560181 232.07182373 61.23482666 231.89804199 60.56433105 231.71899414 C59.20912093 231.35565784 57.8547477 230.98918594 56.5012207 230.61962891 C54.42120943 230.0522634 52.33847495 229.49589222 50.25512695 228.94091797 C40.08899456 226.20447307 40.08899456 226.20447307 38.94262695 225.05810547 C38.55152589 219.22064269 38.45710822 213.38177111 38.37280273 207.53271484 C38.33627675 205.56354417 38.28184116 203.59461716 38.20874023 201.62646484 C37.5343637 183.19143451 37.5343637 183.19143451 42.98168945 177.15185547 C45.21459961 175.17333984 45.21459961 175.17333984 47.94262695 174.05810547 C53.95374341 174.52937474 59.56754083 175.86966261 65.37207031 177.45068359 C66.27871429 177.69306259 67.18535828 177.93544159 68.11947632 178.18516541 C71.09191573 178.98130088 74.06221241 179.78512422 77.0324707 180.58935547 C79.10362454 181.14640733 81.17487956 181.70308308 83.24623108 182.25939941 C87.57343524 183.42282198 91.89963006 184.58990366 96.22509766 185.75976562 C101.78108032 187.26224667 107.33913554 188.75688618 112.89791012 190.24900055 C117.16809902 191.39589091 121.43736324 192.54619095 125.70633125 193.69761658 C127.75670742 194.25033913 129.80733004 194.80214826 131.85819817 195.3530426 C134.71270415 196.12049979 137.56598006 196.89236537 140.41894531 197.66552734 C141.27240036 197.89412949 142.12585541 198.12273163 143.00517273 198.35826111 C148.82823691 199.94371543 148.82823691 199.94371543 149.94262695 201.05810547 C150.06232554 202.58876473 150.11331059 204.12485254 150.13690186 205.66000366 C150.15417328 206.65518005 150.1714447 207.65035645 150.1892395 208.6756897 C150.20292572 209.77690155 150.21661194 210.8781134 150.23071289 212.01269531 C150.24852814 213.16560059 150.26634338 214.31850586 150.28469849 215.50634766 C150.43946071 226.17308429 150.52817315 236.84084126 150.59469223 247.50847435 C150.64481948 255.38833692 150.73052516 263.26610244 150.86331344 271.14501417 C150.95359441 276.68991506 151.00118655 282.23424469 151.01827073 287.77984774 C151.02969252 291.08858852 151.06538552 294.39405103 151.13622284 297.70212936 C151.60197207 320.53570683 151.60197207 320.53570683 146.18280411 326.85320473 C143.03511819 329.88370562 140.58292207 331.98020879 136.12860107 332.19174194 C133.83298437 331.76024015 132.00907887 331.13470141 129.94262695 330.05810547 C130.03415039 330.93595703 130.12567383 331.81380859 130.2199707 332.71826172 C129.77167182 338.11679054 126.54645026 340.5018176 122.7668457 344.10888672 C119.6925052 346.23073445 118.46500335 346.61800727 114.81762695 346.18310547 C112.55981445 345.62841797 112.55981445 345.62841797 110.94262695 345.05810547 C110.79825195 346.02748047 110.65387695 346.99685547 110.50512695 347.99560547 C108.92827658 353.48079211 104.70079561 358.06355455 99.94262695 361.05810547 C94.13025966 360.60140946 88.59557727 359.01782568 82.98168945 357.50341797 C82.0148674 357.24604355 81.04804535 356.98866913 80.05192566 356.72349548 C76.889444 355.88057296 73.7285333 355.0319144 70.56762695 354.18310547 C68.36548486 353.594805 66.16325401 353.00683666 63.9609375 352.41918945 C58.36074273 350.92378858 52.76186631 349.42351603 47.16339111 347.92169189 C43.15514102 346.84695615 39.14619292 345.77484142 35.13719177 344.70291138 C25.09888746 342.01866747 15.06333294 339.32432419 5.03027344 336.62054443 C3.05001711 336.08703777 1.06956965 335.55424071 -0.91088867 335.02148438 C-4.10624388 334.16123067 -7.30078286 333.29804233 -10.49487305 332.43310547 C-11.37103271 332.1972876 -12.24719238 331.96146973 -13.14990234 331.71850586 C-18.82447976 330.17455211 -18.82447976 330.17455211 -21.05737305 329.05810547 C-21.05737305 322.45810547 -21.05737305 315.85810547 -21.05737305 309.05810547 C-26.51660574 307.78518691 -26.51660574 307.78518691 -31.9765625 306.51538086 C-33.00076294 306.27549438 -33.00076294 306.27549438 -34.0456543 306.03076172 C-34.74215088 305.86842041 -35.43864746 305.7060791 -36.15625 305.53881836 C-37.81081364 305.12044982 -39.43831413 304.59779177 -41.05737305 304.05810547 C-41.05737305 297.12810547 -41.05737305 290.19810547 -41.05737305 283.05810547 C-43.69737305 282.72810547 -46.33737305 282.39810547 -49.05737305 282.05810547 C-51.0476429 281.60431408 -53.02938648 281.1094341 -54.99487305 280.55810547 C-55.93202148 280.30029297 -56.86916992 280.04248047 -57.8347168 279.77685547 C-60.05737305 279.05810547 -60.05737305 279.05810547 -61.05737305 278.05810547 C-61.1776557 274.98381799 -61.23196595 271.93132853 -61.24491882 268.85585022 C-61.25678395 267.38894789 -61.25678395 267.38894789 -61.26888877 265.89241117 C-61.29411586 262.58836421 -61.31191882 259.28432005 -61.32958984 255.98022461 C-61.34566555 253.6219462 -61.36204526 251.26366984 -61.37870789 248.90539551 C-61.5235448 227.34613472 -61.59870779 205.78625395 -61.65762615 184.2266016 C-61.66565496 181.33962527 -61.67382323 178.45264938 -61.68212891 175.56567383 C-61.68418651 174.84812427 -61.68624411 174.13057472 -61.68836407 173.39128124 C-61.72274608 161.78070324 -61.79536274 150.17067926 -61.88303652 138.56039459 C-61.97231525 126.63869736 -62.02357093 114.71728683 -62.03892833 102.79526228 C-62.04857393 96.10203957 -62.07642089 89.40996645 -62.14523888 82.71705818 C-62.20931589 76.4154683 -62.22602753 70.11550585 -62.20674324 63.81363678 C-62.20789576 61.50374108 -62.22611616 59.19377956 -62.26288605 56.88417625 C-62.55892539 37.27306635 -62.55892539 37.27306635 -56.33699036 30.58201599 C-53.38382642 28.07826417 -51.95856068 27.08377501 -48.07358837 26.97311497 C-45.55885449 27.41107763 -43.39866207 28.05184934 -41.05737305 29.05810547 C-41.24299805 28.08873047 -41.42862305 27.11935547 -41.61987305 26.12060547 C-41.61159075 22.08712451 -39.80896959 20.00783339 -37.18237305 17.05810547 C-34.46380368 14.503774 -32.96212685 13.16947904 -29.2331543 12.71044922 C-26.74755183 12.96929227 -24.45790847 13.37152227 -22.05737305 14.05810547 C-22.07799805 13.08873047 -22.09862305 12.11935547 -22.11987305 11.12060547 C-21.40526514 6.14897615 -18.08376717 3.22163381 -14.7722168 -0.31689453 C-10.20399427 -3.05125506 -4.96580979 -1.21909627 0 0 Z " fill="#454646" transform="translate(101.057373046875,32.94189453125)"/>
<path d="M0 0 C2.06982117 0.61697979 4.1254844 1.28192528 6.171875 1.97265625 C7.62002475 2.36690509 9.07153383 2.74892902 10.52539062 3.12158203 C16.00858124 4.52956307 21.46379471 6.03325086 26.921875 7.53515625 C30.06455546 8.39424144 33.20769611 9.25163029 36.35083008 10.10905457 C38.60472382 10.72407426 40.85846356 11.33965856 43.11206055 11.95576477 C56.85754939 15.7122911 70.61658593 19.41853836 84.37512207 23.12692261 C88.65095597 24.27942181 92.92657943 25.43270018 97.20214844 26.58618164 C103.85864276 28.38197434 110.51523043 30.17742057 117.171875 31.97265625 C117.501875 38.57265625 117.831875 45.17265625 118.171875 51.97265625 C124.04966002 53.5767973 124.04966002 53.5767973 129.92944336 55.17358398 C130.65784424 55.37411377 131.38624512 55.57464355 132.13671875 55.78125 C132.8855835 55.98548584 133.63444824 56.18972168 134.40600586 56.40014648 C136.171875 56.97265625 136.171875 56.97265625 137.171875 57.97265625 C137.32533921 60.40829191 137.41406612 62.81686707 137.45996094 65.25537109 C137.47777618 66.01813354 137.49559143 66.780896 137.51394653 67.56677246 C137.66894737 74.6359274 137.75598491 81.7064923 137.82394028 88.776968 C137.87001606 93.52523939 137.93715508 98.27102646 138.05664062 103.01806641 C138.17180277 107.610128 138.23190695 112.19996558 138.2544632 116.79338455 C138.27215746 118.53739819 138.30880677 120.28133438 138.36547089 122.02451706 C138.82865837 136.98939852 138.82865837 136.98939852 133.55681896 143.21400928 C130.73583518 146.06072347 127.95417905 148.51547113 124.02017212 149.52459717 C121.89078752 149.35225792 120.29881907 148.82619971 118.32421875 148.015625 C116.85557352 147.54522512 115.38664655 147.0757042 113.91748047 146.60693359 C113.15022644 146.33685486 112.38297241 146.06677612 111.59246826 145.78851318 C108.21150202 144.64896413 104.77774791 143.78261537 101.32192993 142.90164185 C98.60864691 142.20975574 95.90448048 141.48958439 93.20117188 140.75976562 C89.49912832 139.76087536 85.79603253 138.76612182 82.09179688 137.77539062 C80.30720932 137.29587928 78.52270094 136.81607315 76.73828125 136.3359375 C75.9051088 136.11303543 75.07193634 135.89013336 74.21351624 135.66047668 C68.40241871 134.08792811 68.40241871 134.08792811 66.171875 132.97265625 C66.171875 119.44265625 66.171875 105.91265625 66.171875 91.97265625 C63.201875 91.64265625 60.231875 91.31265625 57.171875 90.97265625 C55.40946649 90.60305799 53.65485837 90.19045021 51.91845703 89.71337891 C50.99364532 89.46286774 50.06883362 89.21235657 49.11599731 88.95425415 C47.66252396 88.54957413 47.66252396 88.54957413 46.1796875 88.13671875 C45.15310028 87.85670013 44.12651306 87.57668152 43.06881714 87.28817749 C39.80973213 86.39765909 36.55330048 85.49784564 33.296875 84.59765625 C31.11865978 84.00068073 28.94027569 83.40432101 26.76171875 82.80859375 C21.925031 81.48480635 17.08998737 80.15520389 12.25637817 78.82022095 C7.56345648 77.53069244 2.86753019 76.25218987 -1.828125 74.97265625 C-1.8240608 75.9168788 -1.8199966 76.86110134 -1.81580925 77.83393669 C-1.71912751 100.82855666 -1.68007644 123.82272711 -1.70115471 146.81754875 C-1.71001946 157.93784852 -1.70028515 169.05754664 -1.64648438 180.17773438 C-1.59962864 189.87225496 -1.58795678 199.56607675 -1.6182071 209.2606746 C-1.63299944 214.39232171 -1.63039568 219.52260809 -1.58562851 224.65410995 C-1.54400315 229.4892838 -1.54960163 234.32215566 -1.59064674 239.15731239 C-1.59748702 240.92694385 -1.58741245 242.69673863 -1.55869484 244.46615028 C-1.35421613 257.95424723 -1.35421613 257.95424723 -5.09315681 263.07444954 C-7.828125 265.68408203 -7.828125 265.68408203 -10.56393433 267.7644043 C-14.29383627 271.4021559 -14.03469308 275.40989252 -14.11355591 280.40603638 C-14.08381683 281.68872406 -14.05407776 282.97141174 -14.0234375 284.29296875 C-14.02723335 285.64633053 -14.03543948 286.99968637 -14.04782104 288.35299683 C-14.06846159 291.88204407 -14.0299808 295.40795388 -13.97833252 298.93658447 C-13.93618199 302.55020175 -13.95110312 306.16356023 -13.9609375 309.77734375 C-13.97189752 316.84320304 -13.92027855 323.90732664 -13.828125 330.97265625 C-14.158125 330.97265625 -14.488125 330.97265625 -14.828125 330.97265625 C-15.05706695 290.24951481 -15.23324835 249.52645732 -15.33877829 208.80280078 C-15.3512852 203.99385832 -15.36422844 199.18491713 -15.37744141 194.37597656 C-15.38006451 193.41861233 -15.38268761 192.46124809 -15.38539021 191.47487281 C-15.42889092 175.97793409 -15.50772938 160.48136673 -15.59965296 144.98464824 C-15.69320383 129.0808286 -15.74872019 113.17720331 -15.76900995 97.27311981 C-15.7827242 87.46101706 -15.82601956 77.64996398 -15.90728967 67.8381844 C-15.96019403 61.10772895 -15.97611638 54.37781527 -15.96313877 47.64716704 C-15.95673966 43.76479769 -15.96646918 39.88426076 -16.02017975 36.00221825 C-16.07806572 31.78748829 -16.05796689 27.57664097 -16.03067017 23.36160278 C-16.05979858 22.14173679 -16.08892699 20.92187081 -16.11893809 19.66503918 C-15.99869801 12.79213325 -14.84033424 9.19686125 -10.05472374 4.13413811 C-6.65330325 0.94453016 -4.72497843 -0.68075159 0 0 Z " fill="#454646" transform="translate(113.828125,36.02734375)"/>
<path d="M0 0 C2.62228527 0.55649784 4.94163338 1.39464595 7.4296875 2.390625 C9.4462253 2.92784936 11.46716402 3.44882883 13.4921875 3.953125 C18.29122596 5.25216346 18.29122596 5.25216346 19.4296875 6.390625 C19.54938608 7.92128426 19.60037113 9.45737207 19.6239624 10.99252319 C19.64986954 12.48528778 19.64986954 12.48528778 19.67630005 14.00820923 C19.69682938 15.66002701 19.69682938 15.66002701 19.71777344 17.34521484 C19.73558868 18.49812012 19.75340393 19.65102539 19.77175903 20.83886719 C19.92652126 31.50560382 20.01523369 42.17336079 20.08175278 52.84099388 C20.13188003 60.72085645 20.21758571 68.59862197 20.35037398 76.4775337 C20.44065495 82.02243459 20.4882471 87.56676423 20.50533128 93.11236727 C20.51675307 96.42110805 20.55244607 99.72657056 20.62328339 103.0346489 C21.08903262 125.86822636 21.08903262 125.86822636 15.66986465 132.18572426 C12.52217873 135.21622515 10.06998262 137.31272833 5.61566162 137.52426147 C3.32004492 137.09275968 1.49613942 136.46722094 -0.5703125 135.390625 C-0.43302734 136.70740234 -0.43302734 136.70740234 -0.29296875 138.05078125 C-0.74126763 143.44931007 -3.96648919 145.83433714 -7.74609375 149.44140625 C-10.82043426 151.56325398 -12.0479361 151.9505268 -15.6953125 151.515625 C-17.953125 150.9609375 -17.953125 150.9609375 -19.5703125 150.390625 C-19.7146875 151.36 -19.8590625 152.329375 -20.0078125 153.328125 C-21.55658981 158.92666818 -26.20918663 162.80245987 -30.5703125 166.390625 C-31.2303125 166.390625 -31.8903125 166.390625 -32.5703125 166.390625 C-32.5703125 113.260625 -32.5703125 60.130625 -32.5703125 5.390625 C-32.2403125 6.050625 -31.9103125 6.710625 -31.5703125 7.390625 C-29.22680912 8.01148631 -29.22680912 8.01148631 -26.4453125 8.390625 C-22.0103718 9.07859364 -17.86246345 10.1061908 -13.5703125 11.390625 C-12.55324219 10.16472656 -12.55324219 10.16472656 -11.515625 8.9140625 C-4.27703473 0.65000528 -4.27703473 0.65000528 0 0 Z " fill="#454646" transform="translate(231.5703125,227.609375)"/>
<path d="M0 0 C0.33 6.6 0.66 13.2 1 20 C6.87778502 21.60414105 6.87778502 21.60414105 12.75756836 23.20092773 C13.48596924 23.40145752 14.21437012 23.6019873 14.96484375 23.80859375 C15.7137085 24.01282959 16.46257324 24.21706543 17.23413086 24.42749023 C19 25 19 25 20 26 C20.15346421 28.43563566 20.24219112 30.84421082 20.28808594 33.28271484 C20.30590118 34.04547729 20.32371643 34.80823975 20.34207153 35.59411621 C20.49707237 42.66327115 20.58410991 49.73383605 20.65206528 56.80431175 C20.69814106 61.55258314 20.76528008 66.29837021 20.88476562 71.04541016 C20.99992777 75.63747175 21.06003195 80.22730933 21.0825882 84.8207283 C21.10028246 86.56474194 21.13693177 88.30867813 21.19359589 90.05186081 C21.65678337 105.01674227 21.65678337 105.01674227 16.38494396 111.24135303 C13.56396018 114.08806722 10.78230405 116.54281488 6.84829712 117.55194092 C4.71891252 117.37960167 3.12694407 116.85354346 1.15234375 116.04296875 C-0.31630148 115.57256887 -1.78522845 115.10304795 -3.25439453 114.63427734 C-4.40527557 114.22915924 -4.40527557 114.22915924 -5.57940674 113.81585693 C-8.96037298 112.67630788 -12.39412709 111.80995912 -15.84994507 110.9289856 C-18.56322809 110.23709949 -21.26739452 109.51692814 -23.97070312 108.78710938 C-27.67274668 107.78821911 -31.37584247 106.79346557 -35.08007812 105.80273438 C-36.86466568 105.32322303 -38.64917406 104.8434169 -40.43359375 104.36328125 C-41.2667662 104.14037918 -42.09993866 103.91747711 -42.95835876 103.68782043 C-48.76945629 102.11527186 -48.76945629 102.11527186 -51 101 C-51 94.73 -51 88.46 -51 82 C-43 83 -43 83 -32 86 C-32 59.27 -32 32.54 -32 5 C-31.67 5 -31.34 5 -31 5 C-31 32.06 -31 59.12 -31 87 C-27.37 87.66 -23.74 88.32 -20 89 C-17.65639966 89.62962397 -15.31715409 90.27910762 -13 91 C-13.00967804 90.00743195 -13.01935608 89.01486389 -13.02932739 87.99221802 C-13.11427425 78.60619277 -13.14614113 69.22126247 -13.12697029 59.83485603 C-13.11879636 55.00975685 -13.12886805 50.18617617 -13.18164062 45.36132812 C-13.2319512 40.69867652 -13.233023 36.0383019 -13.20095444 31.37551498 C-13.19722325 29.6030166 -13.21078779 27.83038899 -13.24249649 26.05817032 C-13.48522883 11.49757284 -13.48522883 11.49757284 -9.76409912 6.61956787 C-3.32074777 0 -3.32074777 0 0 0 Z " fill="#454646" transform="translate(231,68)"/>
<path d="M0 0 C12.94110873 2.94101556 25.75417316 6.27996995 38.5625 9.75 C40.46021948 10.26196709 42.35800561 10.77368719 44.25585938 11.28515625 C48.83800986 12.52060293 53.41925614 13.75934853 58 15 C58 15.99 58 16.98 58 18 C56.71352719 19.03894035 55.39519069 20.03862723 54.0625 21.01757812 C49.21946774 25.72448018 49.07844056 30.48911264 48.95152283 36.87448883 C48.94082914 39.4900076 48.96978958 42.10341015 49 44.71875 C48.99247468 46.5457939 48.98143473 48.3728264 48.96704102 50.1998291 C48.93869714 54.98748482 48.95783746 59.77379758 48.98712158 64.56140137 C49.00856816 69.4550844 48.98475879 74.34852893 48.96484375 79.2421875 C48.93245859 88.82842743 48.9502734 98.41385875 49 108 C48.16807129 107.78065796 48.16807129 107.78065796 47.31933594 107.55688477 C44.7962926 106.89182911 42.2731474 106.22716074 39.75 105.5625 C38.87730469 105.33240234 38.00460938 105.10230469 37.10546875 104.86523438 C36.26113281 104.64287109 35.41679687 104.42050781 34.546875 104.19140625 C33.77182617 103.98717041 32.99677734 103.78293457 32.19824219 103.57250977 C30.13551525 103.03529356 28.0678932 102.5169733 26 102 C20.72 100.68 15.44 99.36 10 98 C9.67 71.27 9.34 44.54 9 17 C0.585 15.02 0.585 15.02 -8 13 C-8.66 12.34 -9.32 11.68 -10 11 C-9.36191406 10.37351562 -8.72382813 9.74703125 -8.06640625 9.1015625 C-7.24011719 8.28429688 -6.41382813 7.46703125 -5.5625 6.625 C-4.73878906 5.81289063 -3.91507813 5.00078125 -3.06640625 4.1640625 C-0.96565328 2.17651485 -0.96565328 2.17651485 0 0 Z " fill="#464747" transform="translate(170,52)"/>
<path d="M0 0 C1.04050758 0.2781958 1.04050758 0.2781958 2.10203552 0.56201172 C4.36498692 1.16837683 6.62583124 1.78222901 8.88671875 2.39624023 C10.46699698 2.82126226 12.04740276 3.24581035 13.62792969 3.66990662 C17.76538186 4.78144514 21.9010817 5.89936979 26.03643799 7.01867676 C30.26543105 8.16209868 34.49606581 9.29941233 38.7265625 10.43725586 C47.01072463 12.66633935 55.2930438 14.90217858 63.57421875 17.14233398 C63.57421875 20.14233398 63.57421875 20.14233398 61.89453125 22.11499023 C61.17007813 22.80463867 60.445625 23.49428711 59.69921875 24.20483398 C58.97992188 24.89706055 58.260625 25.58928711 57.51953125 26.30249023 C56.87757813 26.90963867 56.235625 27.51678711 55.57421875 28.14233398 C54.91421875 28.80233398 54.25421875 29.46233398 53.57421875 30.14233398 C52.32125 29.79299805 51.06828125 29.44366211 49.77734375 29.08374023 C48.12630973 28.62407735 46.47526764 28.16444345 44.82421875 27.70483398 C43.99921875 27.47473633 43.17421875 27.24463867 42.32421875 27.00756836 C41.525 26.78520508 40.72578125 26.5628418 39.90234375 26.33374023 C38.8026123 26.02738647 38.8026123 26.02738647 37.68066406 25.71484375 C35.65235491 25.16357057 33.61335124 24.65211711 31.57421875 24.14233398 C26.62421875 22.82233398 21.67421875 21.50233398 16.57421875 20.14233398 C16.24421875 32.68233398 15.91421875 45.22233398 15.57421875 58.14233398 C9.63937666 57.48290709 4.79308192 56.84231755 -0.83203125 55.32983398 C-1.4828064 55.15605225 -2.13358154 54.98227051 -2.80407715 54.80322266 C-4.15928727 54.43988636 -5.5136605 54.07341446 -6.8671875 53.70385742 C-8.94719877 53.13649192 -11.02993326 52.58012074 -13.11328125 52.02514648 C-23.27941365 49.28870159 -23.27941365 49.28870159 -24.42578125 48.14233398 C-24.81688232 42.3048712 -24.91129999 36.46599963 -24.99560547 30.61694336 C-25.03213145 28.64777269 -25.08656704 26.67884568 -25.15966797 24.71069336 C-25.8340445 6.27566303 -25.8340445 6.27566303 -20.38671875 0.23608398 C-14.5324897 -4.95117517 -6.85698348 -1.84893662 0 0 Z " fill="#3C3D3D" transform="translate(164.42578125,209.857666015625)"/>
<path d="M0 0 C0 0.99 0 1.98 0 3 C-1.27185769 4.15262103 -2.59311298 5.25122265 -3.9375 6.31835938 C-8.66211794 10.89871815 -8.95519666 14.64555189 -9.05883789 21.05432129 C-9.03942139 22.32545776 -9.02000488 23.59659424 -9 24.90625 C-9.00753069 26.24005491 -9.01857541 27.57384416 -9.03295898 28.90759277 C-9.06122814 32.39338214 -9.04221644 35.87732017 -9.01287842 39.36303711 C-8.99138425 42.92964359 -9.01525991 46.49592676 -9.03515625 50.0625 C-9.06748648 57.04200677 -9.04980081 64.02060857 -9 71 C-8.28972656 71.13277344 -7.57945313 71.26554687 -6.84765625 71.40234375 C-5.92855469 71.57894531 -5.00945312 71.75554687 -4.0625 71.9375 C-3.14597656 72.11152344 -2.22945313 72.28554687 -1.28515625 72.46484375 C1 73 1 73 2 74 C2.11979484 76.38028714 2.17450798 78.73248564 2.18754578 81.11424255 C2.19545586 81.86758206 2.20336594 82.62092157 2.21151572 83.39708954 C2.23673248 85.94105753 2.25454229 88.4850219 2.2722168 91.02905273 C2.28829365 92.84546671 2.30467337 94.66187803 2.32133484 96.47828674 C2.46622749 113.09116229 2.54112841 129.70479752 2.60025311 146.31817532 C2.64480205 158.5997403 2.72188078 170.88018665 2.84183758 183.16125149 C2.92331562 191.79403221 2.96640314 200.42650692 2.98155528 209.05965573 C2.99171341 214.21598807 3.01894161 219.37091331 3.08786583 224.52682304 C3.15207629 229.38398065 3.16862034 234.23902662 3.14937019 239.09654808 C3.15052014 240.87432248 3.16865991 242.65218413 3.205513 244.42957687 C3.47179761 257.97735223 3.47179761 257.97735223 -0.26041031 263.10641479 C-2.99525452 265.71617126 -2.99525452 265.71617126 -5.73313999 267.79441738 C-9.4681737 271.42848627 -9.20656349 275.4369456 -9.28543091 280.43338013 C-9.25569183 281.71606781 -9.22595276 282.99875549 -9.1953125 284.3203125 C-9.19910835 285.67367428 -9.20731448 287.02703012 -9.21969604 288.38034058 C-9.24033659 291.90938782 -9.2018558 295.43529763 -9.15020752 298.96392822 C-9.10805699 302.5775455 -9.12297812 306.19090398 -9.1328125 309.8046875 C-9.14377252 316.87054679 -9.09215355 323.93467039 -9 331 C-9.33 331 -9.66 331 -10 331 C-10.22894195 290.27685856 -10.40512335 249.55380107 -10.51065329 208.83014453 C-10.5231602 204.02120207 -10.53610344 199.21226088 -10.54931641 194.40332031 C-10.55193951 193.44595608 -10.55456261 192.48859184 -10.55726521 191.50221656 C-10.60076592 176.00527784 -10.67960438 160.50871048 -10.77152796 145.01199199 C-10.86507883 129.10817235 -10.92059519 113.20454706 -10.94088495 97.30046356 C-10.9545992 87.48836081 -10.99789456 77.67730773 -11.07916467 67.86552815 C-11.13206903 61.1350727 -11.14799138 54.40515902 -11.13501377 47.67451079 C-11.12861466 43.79214144 -11.13834418 39.91160451 -11.19205475 36.029562 C-11.24994072 31.81483204 -11.22984189 27.60398472 -11.20254517 23.38894653 C-11.23167358 22.16908054 -11.26080199 20.94921456 -11.29081309 19.69238293 C-11.16736519 12.63611878 -9.96588323 9.24046561 -4.92484093 4.16319084 C-3.31121843 2.74301018 -1.67830407 1.34312551 0 0 Z " fill="#1C1D1D" transform="translate(109,36)"/>
<path d="M0 0 C11 2 11 2 19 5 C19 31.4 19 57.8 19 85 C12.73 83.35 6.46 81.7 0 80 C0 53.6 0 27.2 0 0 Z " fill="#464747" transform="translate(200,75)"/>
<path d="M0 0 C0.25762493 15.45558483 0.45125858 30.91100788 0.56993389 46.3682375 C0.62651739 53.54643588 0.70357175 60.72329589 0.82983398 67.90063477 C0.93990827 74.16079004 1.01054008 80.41997575 1.03497344 86.68107194 C1.04924614 89.99324515 1.08834315 93.30201902 1.16303062 96.61345863 C1.65850889 119.49925866 1.65850889 119.49925866 -3.96187878 125.78225231 C-9.60878704 131 -9.60878704 131 -12 131 C-12.23410701 115.39654793 -12.41018695 99.79357362 -12.51812172 84.1887989 C-12.56958145 76.94232432 -12.63967257 69.69694388 -12.75439453 62.45117188 C-12.85439655 56.13206433 -12.91865809 49.81374941 -12.94088495 43.49387252 C-12.95387144 40.14976865 -12.98945839 36.80971765 -13.05730057 33.46600723 C-13.48551553 11.4811033 -13.48551553 11.4811033 -9.77752686 6.0824585 C-3.87818302 0 -3.87818302 0 0 0 Z " fill="#1C1D1D" transform="translate(251,234)"/>
<path d="M0 0 C0.79277344 0.27344238 1.58554688 0.54688477 2.40234375 0.82861328 C4.18531703 1.28120249 5.96851018 1.73300734 7.75415039 2.17495728 C11.15054527 3.02972775 14.52443461 3.9665118 17.90234375 4.89111328 C19.3110644 5.27246621 20.7199176 5.65332985 22.12890625 6.03369141 C25.55493324 6.95969124 28.97911478 7.89231562 32.40234375 8.82861328 C32.40234375 12.81118601 31.09803568 13.71899414 28.40234375 16.57861328 C24.01409426 20.78914551 24.01409426 20.78914551 19.52734375 21.07861328 C18.16609375 20.66611328 16.80484375 20.25361328 15.40234375 19.82861328 C11.77234375 18.83861328 8.14234375 17.84861328 4.40234375 16.82861328 C4.07234375 29.69861328 3.74234375 42.56861328 3.40234375 55.82861328 C-3.84666694 54.51061134 -9.07272973 53.53707335 -15.59765625 50.82861328 C-15.84661617 45.17300998 -16.02710198 39.52065377 -16.14697266 33.86083984 C-16.19697703 31.94002683 -16.26501019 30.019589 -16.35205078 28.10009766 C-17.14634098 10.12110539 -17.14634098 10.12110539 -11.05859375 3.44580078 C-7.4772693 0.63818051 -4.69882575 -1.33188547 0 0 Z " fill="#464747" transform="translate(135.59765625,302.17138671875)"/>
<path d="M0 0 C0.79277344 0.27344238 1.58554688 0.54688477 2.40234375 0.82861328 C4.18531703 1.28120249 5.96851018 1.73300734 7.75415039 2.17495728 C11.15054527 3.02972775 14.52443461 3.9665118 17.90234375 4.89111328 C19.3110644 5.27246621 20.7199176 5.65332985 22.12890625 6.03369141 C25.55493324 6.95969124 28.97911478 7.89231562 32.40234375 8.82861328 C32.40234375 12.81118601 31.09803568 13.71899414 28.40234375 16.57861328 C24.01409426 20.78914551 24.01409426 20.78914551 19.52734375 21.07861328 C18.16609375 20.66611328 16.80484375 20.25361328 15.40234375 19.82861328 C11.77234375 18.83861328 8.14234375 17.84861328 4.40234375 16.82861328 C4.07234375 29.69861328 3.74234375 42.56861328 3.40234375 55.82861328 C-3.84666694 54.51061134 -9.07272973 53.53707335 -15.59765625 50.82861328 C-15.84661617 45.17300998 -16.02710198 39.52065377 -16.14697266 33.86083984 C-16.19697703 31.94002683 -16.26501019 30.019589 -16.35205078 28.10009766 C-17.14634098 10.12110539 -17.14634098 10.12110539 -11.05859375 3.44580078 C-7.4772693 0.63818051 -4.69882575 -1.33188547 0 0 Z " fill="#464747" transform="translate(135.59765625,42.17138671875)"/>
<path d="M0 0 C0 0.99 0 1.98 0 3 C-1.26588246 4.19865386 -2.58821613 5.33833026 -3.9375 6.44226074 C-8.27937628 10.6553632 -8.94587614 13.67175406 -9.05882263 19.61071777 C-9.03941116 20.70404419 -9.01999969 21.79737061 -9 22.92382812 C-9.01638268 24.68122314 -9.01638268 24.68122314 -9.03309631 26.47412109 C-9.0597018 30.32739027 -9.03018492 34.17804264 -9 38.03125 C-9.00752092 40.71032704 -9.01816577 43.38920962 -9.03295898 46.0682373 C-9.06102174 52.38644059 -9.04866202 58.70388259 -9.02153492 65.02206373 C-8.99261989 72.21931718 -9.00913884 79.41624643 -9.02934647 86.61350346 C-9.06987672 101.40914286 -9.05376651 116.20439533 -9 131 C-8.28972656 131.13277344 -7.57945312 131.26554688 -6.84765625 131.40234375 C-5.92855469 131.57894531 -5.00945312 131.75554687 -4.0625 131.9375 C-3.14597656 132.11152344 -2.22945312 132.28554688 -1.28515625 132.46484375 C1 133 1 133 2 134 C2.44006988 138.16801815 2.42635112 140.33777613 0.12890625 143.90625 C-6.68869409 150.79648839 -6.68869409 150.79648839 -10.66796875 151.4140625 C-12.9063871 151.15071917 -14.87735687 150.74856497 -17 150 C-17.144375 150.969375 -17.28875 151.93875 -17.4375 152.9375 C-18.98627731 158.53604318 -23.63887413 162.41183487 -28 166 C-28.66 166 -29.32 166 -30 166 C-30 112.87 -30 59.74 -30 5 C-29.67 5 -29.34 5 -29 5 C-29 45.26 -29 85.52 -29 127 C-25.37 127.66 -21.74 128.32 -18 129 C-15.65639966 129.62962397 -13.31715409 130.27910762 -11 131 C-11.0040642 130.38561632 -11.0081284 129.77123264 -11.01231575 129.13823128 C-11.10797554 114.15484544 -11.14801999 99.17241595 -11.12697029 84.1887989 C-11.1181168 76.94255787 -11.12774699 69.69724036 -11.18164062 62.45117188 C-11.22859445 56.1317543 -11.24010351 49.81340935 -11.2099179 43.49387252 C-11.19516088 40.15000455 -11.20284636 36.80993773 -11.24249649 33.46600723 C-11.48616147 11.41936021 -11.48616147 11.41936021 -7.69378662 6.0824585 C-5.24477758 3.60753345 -3.01641828 1.7189418 0 0 Z " fill="#434444" transform="translate(229,228)"/>
<path d="M0 0 C0.25580687 10.24013201 0.45078567 20.47949425 0.56993389 30.72218037 C0.62714606 35.47943433 0.70462512 40.23448986 0.82983398 44.99047852 C0.95009664 49.58779886 1.01527461 54.18301696 1.04364967 58.78178978 C1.06384612 60.52862824 1.10328924 62.27536214 1.16303062 64.02129555 C1.65847434 79.11228396 1.65847434 79.11228396 -3.96187878 85.19173717 C-10.06115102 91 -10.06115102 91 -12 91 C-12.23240205 80.6121026 -12.40973283 70.22483021 -12.51812172 59.83485603 C-12.57016311 55.00940822 -12.6406618 50.18574745 -12.75439453 45.36132812 C-12.86360454 40.69921385 -12.9229542 36.03881027 -12.94877243 31.37551498 C-12.96715316 29.60279291 -13.00304987 27.83015741 -13.05730057 26.05817032 C-13.48509543 11.49686148 -13.48509543 11.49686148 -9.77752686 6.61956787 C-3.33475517 0 -3.33475517 0 0 0 Z " fill="#1C1D1D" transform="translate(251,94)"/>
<path d="M0 0 C1.38874511 0.36827046 2.76320045 0.79202827 4.125 1.25 C6.12458166 1.77243712 8.12459769 2.29321398 10.125 2.8125 C11.79322271 3.28622085 13.46046212 3.76348985 15.125 4.25 C15.125 5.24 15.125 6.23 15.125 7.25 C13.83164123 8.23401328 12.51479388 9.18726337 11.1875 10.125 C6.88481021 14.11656054 6.52877013 17.7219797 6.20483398 23.31689453 C6.08742265 27.63059413 6.04076655 31.93537541 6.125 36.25 C1.39499102 35.72218784 -3.04159598 35.07468324 -7.625 33.75 C-8.52734375 33.4921875 -9.4296875 33.234375 -10.359375 32.96875 C-11.18953125 32.7315625 -12.0196875 32.494375 -12.875 32.25 C-14.20766635 31.91400997 -15.54110002 31.58105851 -16.875 31.25 C-19.45916879 30.56547018 -22.04250577 29.87828059 -24.625 29.1875 C-25.32238281 29.00123047 -26.01976563 28.81496094 -26.73828125 28.62304688 C-28.45059646 28.16564761 -30.1628085 27.70786215 -31.875 27.25 C-31.875 22.72479949 -31.44655636 22.12280895 -28.5 18.9375 C-25.96215618 16.476974 -24.66292541 15.33370312 -21.1171875 14.95703125 C-18.63052836 15.22269996 -16.2924529 15.61591399 -13.875 16.25 C-13.895625 15.280625 -13.91625 14.31125 -13.9375 13.3125 C-13.21641129 8.29578281 -9.92707093 5.28207513 -6.33203125 1.953125 C-3.875 0.25 -3.875 0.25 0 0 Z " fill="#454646" transform="translate(92.875,30.75)"/>
<path d="M0 0 C12.94110873 2.94101556 25.75417316 6.27996995 38.5625 9.75 C40.46021948 10.26196709 42.35800561 10.77368719 44.25585938 11.28515625 C48.83800986 12.52060293 53.41925614 13.75934853 58 15 C58 18 58 18 56.3203125 19.97265625 C55.59585938 20.66230469 54.87140625 21.35195312 54.125 22.0625 C53.40570313 22.75472656 52.68640625 23.44695312 51.9453125 24.16015625 C51.30335938 24.76730469 50.66140625 25.37445313 50 26 C49.34 26.66 48.68 27.32 48 28 C46.74703125 27.65066406 45.4940625 27.30132812 44.203125 26.94140625 C42.55209098 26.48174337 40.90104889 26.02210947 39.25 25.5625 C38.425 25.33240234 37.6 25.10230469 36.75 24.86523438 C35.95078125 24.64287109 35.1515625 24.42050781 34.328125 24.19140625 C33.22839355 23.88505249 33.22839355 23.88505249 32.10644531 23.57250977 C30.07692757 23.02090811 28.04111936 22.50670252 26 22 C22.82825392 21.15794352 19.65806951 20.31031766 16.48828125 19.4609375 C12.76852362 18.46398253 12.76852362 18.46398253 9.03613281 17.51586914 C6.97158274 16.99280028 4.93305822 16.41203993 2.890625 15.80859375 C2.13652344 15.58623047 1.38242188 15.36386719 0.60546875 15.13476562 C-0.17183594 14.90466797 -0.94914063 14.67457031 -1.75 14.4375 C-2.54277344 14.20353516 -3.33554688 13.96957031 -4.15234375 13.72851562 C-6.10177988 13.15307966 -8.05091925 12.57663852 -10 12 C-8.56770833 10.33984375 -7.13541667 8.6796875 -5.703125 7.01953125 C-3.75840499 4.71352151 -1.88104656 2.35809899 0 0 Z " fill="#696A6A" transform="translate(170,212)"/>
<path d="M0 0 C12.94110873 2.94101556 25.75417316 6.27996995 38.5625 9.75 C40.46021948 10.26196709 42.35800561 10.77368719 44.25585938 11.28515625 C48.83800986 12.52060293 53.41925614 13.75934853 58 15 C58 18 58 18 56.3203125 19.97265625 C55.59585938 20.66230469 54.87140625 21.35195312 54.125 22.0625 C53.40570313 22.75472656 52.68640625 23.44695312 51.9453125 24.16015625 C51.30335938 24.76730469 50.66140625 25.37445313 50 26 C49.34 26.66 48.68 27.32 48 28 C46.74703125 27.65066406 45.4940625 27.30132812 44.203125 26.94140625 C42.55209098 26.48174337 40.90104889 26.02210947 39.25 25.5625 C38.425 25.33240234 37.6 25.10230469 36.75 24.86523438 C35.95078125 24.64287109 35.1515625 24.42050781 34.328125 24.19140625 C33.22839355 23.88505249 33.22839355 23.88505249 32.10644531 23.57250977 C30.07692757 23.02090811 28.04111936 22.50670252 26 22 C22.82825392 21.15794352 19.65806951 20.31031766 16.48828125 19.4609375 C12.76852362 18.46398253 12.76852362 18.46398253 9.03613281 17.51586914 C6.97158274 16.99280028 4.93305822 16.41203993 2.890625 15.80859375 C2.13652344 15.58623047 1.38242188 15.36386719 0.60546875 15.13476562 C-0.17183594 14.90466797 -0.94914063 14.67457031 -1.75 14.4375 C-2.54277344 14.20353516 -3.33554688 13.96957031 -4.15234375 13.72851562 C-6.10177988 13.15307966 -8.05091925 12.57663852 -10 12 C-8.56770833 10.33984375 -7.13541667 8.6796875 -5.703125 7.01953125 C-3.75840499 4.71352151 -1.88104656 2.35809899 0 0 Z " fill="#696A6A" transform="translate(170,52)"/>
<path d="M0 0 C17 4 17 4 19 5 C19 18.2 19 31.4 19 45 C2 41 2 41 0 40 C0 26.8 0 13.6 0 0 Z " fill="#464747" transform="translate(160,64)"/>
<path d="M0 0 C6.53835385 0.47551664 11.51064777 2.05319433 18 4 C18 17.2 18 30.4 18 44 C1 39 1 39 -1 38 C-1.02464928 32.74894558 -1.04283568 27.49792455 -1.05493164 22.24682617 C-1.05997218 20.45905979 -1.06680454 18.67129755 -1.07543945 16.88354492 C-1.0875173 14.31948832 -1.09323094 11.75548603 -1.09765625 9.19140625 C-1.10281754 8.3872377 -1.10797882 7.58306915 -1.11329651 6.75453186 C-1.11349215 4.83598285 -1.06201983 2.91754632 -1 1 C-0.67 0.67 -0.34 0.34 0 0 Z " fill="#454646" transform="translate(221,321)"/>
<path d="M0 0 C1.99958166 0.52243712 3.99959769 1.04321398 6 1.5625 C7.66822271 2.03622085 9.33546212 2.51348985 11 3 C11 3.99 11 4.98 11 6 C9.70365218 6.9597108 8.38746868 7.89270628 7.0625 8.8125 C2.65905851 12.88976063 2.39560239 16.71429921 2.07983398 22.42456055 C1.96223379 26.95486547 1.93749278 31.46822638 2 36 C-4.27 34.35 -10.54 32.7 -17 31 C-18.35521081 10.80568587 -18.35521081 10.80568587 -15.27734375 4.43359375 C-10.59648513 -0.56842155 -6.60773358 -2.22217375 0 0 Z " fill="#464747" transform="translate(157,208)"/>
<path d="M0 0 C2.77270429 0.61748874 5.54295598 1.24362456 8.3125 1.875 C9.49102539 2.13603516 9.49102539 2.13603516 10.69335938 2.40234375 C11.45068359 2.57636719 12.20800781 2.75039062 12.98828125 2.9296875 C13.68477783 3.08679199 14.38127441 3.24389648 15.09887695 3.40576172 C17 4 17 4 20 6 C19.28972656 6.47824219 18.57945312 6.95648438 17.84765625 7.44921875 C12.58038289 11.68224488 9.87083979 14.59228745 9.11328125 21.33984375 C8.79711517 26.56035315 8.80241346 31.77477359 9 37 C8.13117188 36.7834375 7.26234375 36.566875 6.3671875 36.34375 C5.21476563 36.0653125 4.06234375 35.786875 2.875 35.5 C1.73804688 35.2215625 0.60109375 34.943125 -0.5703125 34.65625 C-3.81466698 34.03546235 -6.70814457 33.87993232 -10 34 C-11.47997124 13.60169548 -11.47997124 13.60169548 -8.03125 7.5390625 C-5.79328511 5.40733012 -3.57796718 3.69102951 -1 2 C-0.67 1.34 -0.34 0.68 0 0 Z " fill="#464747" transform="translate(230,228)"/>
<path d="M0 0 C2.77270429 0.61748874 5.54295598 1.24362456 8.3125 1.875 C9.49102539 2.13603516 9.49102539 2.13603516 10.69335938 2.40234375 C11.45068359 2.57636719 12.20800781 2.75039062 12.98828125 2.9296875 C13.68477783 3.08679199 14.38127441 3.24389648 15.09887695 3.40576172 C17 4 17 4 20 6 C19.28972656 6.47824219 18.57945312 6.95648438 17.84765625 7.44921875 C12.58038289 11.68224488 9.87083979 14.59228745 9.11328125 21.33984375 C8.79711517 26.56035315 8.80241346 31.77477359 9 37 C8.13117188 36.7834375 7.26234375 36.566875 6.3671875 36.34375 C5.21476563 36.0653125 4.06234375 35.786875 2.875 35.5 C1.73804688 35.2215625 0.60109375 34.943125 -0.5703125 34.65625 C-3.81466698 34.03546235 -6.70814457 33.87993232 -10 34 C-11.47997124 13.60169548 -11.47997124 13.60169548 -8.03125 7.5390625 C-5.79328511 5.40733012 -3.57796718 3.69102951 -1 2 C-0.67 1.34 -0.34 0.68 0 0 Z " fill="#464747" transform="translate(230,88)"/>
<path d="M0 0 C0.66 0.66 1.32 1.32 2 2 C1.36191406 2.39445312 0.72382812 2.78890625 0.06640625 3.1953125 C-3.89383893 6.24735793 -6.52013237 8.63417215 -7.52441406 13.58544922 C-8.18068962 20.04099151 -8.17622388 26.5185025 -8 33 C-10.79239973 32.35720991 -13.58390584 31.71091335 -16.375 31.0625 C-17.1690625 30.88009766 -17.963125 30.69769531 -18.78125 30.50976562 C-19.54179688 30.33251953 -20.30234375 30.15527344 -21.0859375 29.97265625 C-21.7876709 29.81031494 -22.4894043 29.64797363 -23.21240234 29.48071289 C-25 29 -25 29 -27 28 C-28.84381842 6.37910151 -28.84381842 6.37910151 -23.0625 -0.625 C-15.897429 -6.37767571 -7.76424885 -3.09888879 0 0 Z " fill="#464747" transform="translate(127,300)"/>
<path d="M0 0 C0.33 0 0.66 0 1 0 C1 92.73 1 185.46 1 281 C-16 277 -16 277 -19 276 C-19 269.4 -19 262.8 -19 256 C-12.73 257.65 -6.46 259.3 0 261 C0 174.87 0 88.74 0 0 Z " fill="#323333" transform="translate(79,61)"/>
<path d="M0 0 C2.79387762 0.61620855 5.58480926 1.24249695 8.375 1.875 C9.56609375 2.13603516 9.56609375 2.13603516 10.78125 2.40234375 C11.92207031 2.66337891 11.92207031 2.66337891 13.0859375 2.9296875 C13.7876709 3.08679199 14.4894043 3.24389648 15.21240234 3.40576172 C17 4 17 4 19 6 C18.36191406 6.39445312 17.72382812 6.78890625 17.06640625 7.1953125 C13.10616107 10.24735793 10.47986763 12.63417215 9.47558594 17.58544922 C8.81931038 24.04099151 8.82377612 30.5185025 9 37 C6.20760027 36.35720991 3.41609416 35.71091335 0.625 35.0625 C-0.1690625 34.88009766 -0.963125 34.69769531 -1.78125 34.50976562 C-2.54179688 34.33251953 -3.30234375 34.15527344 -4.0859375 33.97265625 C-4.7876709 33.81031494 -5.4894043 33.64797363 -6.21240234 33.48071289 C-8 33 -8 33 -10 32 C-11.48013322 13.50212997 -11.48013322 13.50212997 -8.03125 7.671875 C-5.79274018 5.53253966 -3.54352676 3.75498539 -1 2 C-0.67 1.34 -0.34 0.68 0 0 Z " fill="#464747" transform="translate(110,36)"/>
<path d="M0 0 C0.33 0 0.66 0 1 0 C1 79.2 1 158.4 1 240 C-4.02305841 239.3721177 -8.19076349 238.83148289 -12.9375 237.5 C-13.87464844 237.2421875 -14.81179687 236.984375 -15.77734375 236.71875 C-18 236 -18 236 -19 235 C-19.08651611 233.58429877 -19.10704904 232.164405 -19.09765625 230.74609375 C-19.09443359 229.89208984 -19.09121094 229.03808594 -19.08789062 228.15820312 C-19.07951172 227.26037109 -19.07113281 226.36253906 -19.0625 225.4375 C-19.05798828 224.53580078 -19.05347656 223.63410156 -19.04882812 222.70507812 C-19.03700225 220.46998686 -19.0205222 218.23502563 -19 216 C-12.93912165 217.17850412 -7.00174385 218.49956404 -1 220 C-0.67 147.4 -0.34 74.8 0 0 Z " fill="#343535" transform="translate(59,76)"/>
<path d="M0 0 C0.60585938 0.26039062 1.21171875 0.52078125 1.8359375 0.7890625 C2.03441738 12.47732198 1.42673249 24.11929013 0.8359375 35.7890625 C-1.76859425 35.14467317 -4.3726916 34.4986121 -6.9765625 33.8515625 C-7.71455078 33.66916016 -8.45253906 33.48675781 -9.21289062 33.29882812 C-12.23467234 32.546801 -15.20862968 31.77420677 -18.1640625 30.7890625 C-19.86808784 10.80739923 -19.86808784 10.80739923 -16.2890625 5.03125 C-11.17958734 -0.57320557 -7.31310992 -2.4077008 0 0 Z " fill="#464747" transform="translate(58.1640625,61.2109375)"/>
<path d="M0 0 C6.60119775 0.62275451 12.62531521 2.16727812 19 4 C19 10.6 19 17.2 19 24 C5.68236222 21.75156765 -7.07245387 17.83431321 -20 14 C-19.61328125 13.55269531 -19.2265625 13.10539062 -18.828125 12.64453125 C-15.81609925 9.1478974 -12.85678969 5.62592537 -10 2 C-5.545 2.99 -5.545 2.99 -1 4 C-0.67 2.68 -0.34 1.36 0 0 Z " fill="#464747" transform="translate(180,310)"/>
<path d="M0 0 C6.05355467 1.47096792 12.06988437 3.04438888 18.078125 4.68896484 C19.48684565 5.07031778 20.89569885 5.45118142 22.3046875 5.83154297 C25.73071449 6.7575428 29.15489603 7.69016718 32.578125 8.62646484 C32.578125 12.60903757 31.27381693 13.5168457 28.578125 16.37646484 C24.18987551 20.58699707 24.18987551 20.58699707 19.703125 20.87646484 C18.31433794 20.50835261 16.93966985 20.08519322 15.578125 19.62646484 C13.66191258 19.12472677 11.74522296 18.62480861 9.828125 18.12646484 C8.078125 17.62646484 6.328125 17.12646484 4.578125 16.62646484 C3.24545865 16.29047481 1.91202498 15.95752335 0.578125 15.62646484 C-2.00604379 14.94193503 -4.58938077 14.25474544 -7.171875 13.56396484 C-7.86925781 13.37769531 -8.56664063 13.19142578 -9.28515625 12.99951172 C-10.99747146 12.54211245 -12.7096835 12.084327 -14.421875 11.62646484 C-14.421875 7.64389212 -13.11756693 6.73608399 -10.421875 3.87646484 C-9.679375 3.05662109 -8.936875 2.23677734 -8.171875 1.39208984 C-5.08640732 -0.58892065 -3.55552428 -0.6725087 0 0 Z " fill="#696A6A" transform="translate(135.421875,302.37353515625)"/>
<path d="M0 0 C6.05355467 1.47096792 12.06988437 3.04438888 18.078125 4.68896484 C19.48684565 5.07031778 20.89569885 5.45118142 22.3046875 5.83154297 C25.73071449 6.7575428 29.15489603 7.69016718 32.578125 8.62646484 C32.578125 12.60903757 31.27381693 13.5168457 28.578125 16.37646484 C24.18987551 20.58699707 24.18987551 20.58699707 19.703125 20.87646484 C18.31433794 20.50835261 16.93966985 20.08519322 15.578125 19.62646484 C13.66191258 19.12472677 11.74522296 18.62480861 9.828125 18.12646484 C8.078125 17.62646484 6.328125 17.12646484 4.578125 16.62646484 C3.24545865 16.29047481 1.91202498 15.95752335 0.578125 15.62646484 C-2.00604379 14.94193503 -4.58938077 14.25474544 -7.171875 13.56396484 C-7.86925781 13.37769531 -8.56664063 13.19142578 -9.28515625 12.99951172 C-10.99747146 12.54211245 -12.7096835 12.084327 -14.421875 11.62646484 C-14.421875 7.64389212 -13.11756693 6.73608399 -10.421875 3.87646484 C-9.679375 3.05662109 -8.936875 2.23677734 -8.171875 1.39208984 C-5.08640732 -0.58892065 -3.55552428 -0.6725087 0 0 Z " fill="#696A6A" transform="translate(135.421875,42.37353515625)"/>
<path d="M0 0 C0 0.99 0 1.98 0 3 C-1.30490182 3.982722 -2.63186002 4.93625804 -3.96875 5.875 C-7.94301516 9.70207015 -8.54676723 12.76695906 -8.7668457 18.05639648 C-8.79173335 22.71038555 -8.66718943 27.34945256 -8.5 32 C-8.45983252 33.93872879 -8.42333748 35.87753735 -8.390625 37.81640625 C-8.30967642 42.54785094 -8.15318921 47.26815558 -8 52 C-2.06 53.65 3.88 55.3 10 57 C10 43.47 10 29.94 10 16 C10.33 16 10.66 16 11 16 C11 36.13 11 56.26 11 77 C-6 73 -6 73 -10 71 C-10.23283623 63.21989087 -10.40994212 55.44061361 -10.51812172 47.6578846 C-10.57007628 44.04279727 -10.64039105 40.43011132 -10.75439453 36.81640625 C-10.86395153 33.32132722 -10.92301919 29.82853966 -10.94877243 26.33187485 C-10.97594597 24.36493924 -11.05387588 22.39891288 -11.13296509 20.43338013 C-11.1375128 13.08470978 -10.21271848 9.40710575 -4.93896484 4.10498047 C-3.32313208 2.70078047 -1.68622354 1.31884166 0 0 Z " fill="#3A3B3B" transform="translate(129,301)"/>
<path d="M0 0 C0 0.99 0 1.98 0 3 C-1.30490182 3.982722 -2.63186002 4.93625804 -3.96875 5.875 C-7.94301516 9.70207015 -8.54676723 12.76695906 -8.7668457 18.05639648 C-8.79173335 22.71038555 -8.66718943 27.34945256 -8.5 32 C-8.45983252 33.93872879 -8.42333748 35.87753735 -8.390625 37.81640625 C-8.30967642 42.54785094 -8.15318921 47.26815558 -8 52 C-2.06 53.65 3.88 55.3 10 57 C10 43.47 10 29.94 10 16 C10.33 16 10.66 16 11 16 C11 36.13 11 56.26 11 77 C-6 73 -6 73 -10 71 C-10.23283623 63.21989087 -10.40994212 55.44061361 -10.51812172 47.6578846 C-10.57007628 44.04279727 -10.64039105 40.43011132 -10.75439453 36.81640625 C-10.86395153 33.32132722 -10.92301919 29.82853966 -10.94877243 26.33187485 C-10.97594597 24.36493924 -11.05387588 22.39891288 -11.13296509 20.43338013 C-11.1375128 13.08470978 -10.21271848 9.40710575 -4.93896484 4.10498047 C-3.32313208 2.70078047 -1.68622354 1.31884166 0 0 Z " fill="#3A3B3B" transform="translate(129,41)"/>
<path d="M0 0 C0 0.99 0 1.98 0 3 C-1.29335877 3.98401328 -2.61020612 4.93726337 -3.9375 5.875 C-8.608391 10.37289504 -8.81760769 14.57719525 -9 20.75 C-9.06632071 24.50180949 -9.04008366 28.248042 -9 32 C-9.00809867 33.93882058 -9.01978212 35.87762971 -9.03515625 37.81640625 C-9.06488638 42.54514802 -9.04571139 47.27141016 -9 52 C-7.79601562 52.27714844 -6.59203125 52.55429687 -5.3515625 52.83984375 C-3.77601093 53.20559679 -2.20049177 53.57148945 -0.625 53.9375 C0.1690625 54.11990234 0.963125 54.30230469 1.78125 54.49023438 C2.92207031 54.75610352 2.92207031 54.75610352 4.0859375 55.02734375 C4.7876709 55.18968506 5.4894043 55.35202637 6.21240234 55.51928711 C8 56 8 56 10 57 C10 43.47 10 29.94 10 16 C10.33 16 10.66 16 11 16 C11 35.8 11 55.6 11 76 C0.81751825 74.86861314 0.81751825 74.86861314 -4 73.5 C-4.928125 73.2421875 -5.85625 72.984375 -6.8125 72.71875 C-9 72 -9 72 -10 71 C-10.14630853 69.15207963 -10.22296535 67.29860553 -10.2722168 65.44555664 C-10.30441818 64.25664322 -10.33661957 63.0677298 -10.36979675 61.8427887 C-10.46583685 57.08729998 -10.54675849 52.33191858 -10.60025311 47.57575321 C-10.64108696 43.96963242 -10.70106987 40.36625564 -10.80932617 36.76147461 C-10.91377202 33.27164004 -10.9677667 29.78424246 -10.98771095 26.29293633 C-11.01117639 24.33051421 -11.0843167 22.36888561 -11.15861511 20.4077301 C-11.14371526 13.07175166 -10.20010923 9.39895138 -4.93676758 4.10717773 C-3.32152249 2.70244633 -1.68531137 1.31985325 0 0 Z " fill="#3A3B3B" transform="translate(169,312)"/>
<path d="M0 0 C0 0.99 0 1.98 0 3 C-1.29335877 3.98401328 -2.61020612 4.93726337 -3.9375 5.875 C-8.608391 10.37289504 -8.81760769 14.57719525 -9 20.75 C-9.06632071 24.50180949 -9.04008366 28.248042 -9 32 C-9.00809867 33.93882058 -9.01978212 35.87762971 -9.03515625 37.81640625 C-9.06488638 42.54514802 -9.04571139 47.27141016 -9 52 C-7.79601562 52.27714844 -6.59203125 52.55429688 -5.3515625 52.83984375 C-3.77601093 53.20559679 -2.20049177 53.57148945 -0.625 53.9375 C0.1690625 54.11990234 0.963125 54.30230469 1.78125 54.49023438 C2.92207031 54.75610352 2.92207031 54.75610352 4.0859375 55.02734375 C4.7876709 55.18968506 5.4894043 55.35202637 6.21240234 55.51928711 C8 56 8 56 10 57 C10 43.47 10 29.94 10 16 C10.33 16 10.66 16 11 16 C11 35.8 11 55.6 11 76 C0.81751825 74.86861314 0.81751825 74.86861314 -4 73.5 C-4.928125 73.2421875 -5.85625 72.984375 -6.8125 72.71875 C-9 72 -9 72 -10 71 C-10.14630853 69.15207963 -10.22296535 67.29860553 -10.2722168 65.44555664 C-10.30441818 64.25664322 -10.33661957 63.0677298 -10.36979675 61.8427887 C-10.46583685 57.08729998 -10.54675849 52.33191858 -10.60025311 47.57575321 C-10.64108696 43.96963242 -10.70106987 40.36625564 -10.80932617 36.76147461 C-10.91377202 33.27164004 -10.9677667 29.78424246 -10.98771095 26.29293633 C-11.01117639 24.33051421 -11.0843167 22.36888561 -11.15861511 20.4077301 C-11.14371526 13.07175166 -10.20010923 9.39895138 -4.93676758 4.10717773 C-3.32152249 2.70244633 -1.68531137 1.31985325 0 0 Z " fill="#3A3B3B" transform="translate(169,52)"/>
<path d="M0 0 C0.33 0 0.66 0 1 0 C1 33.33 1 66.66 1 101 C-6.01614413 99.59677117 -12.264692 98.11681109 -19 96 C-19 89.73 -19 83.46 -19 77 C-11 78 -11 78 0 81 C0 54.27 0 27.54 0 0 Z " fill="#3B3C3C" transform="translate(199,73)"/>
<path d="M0 0 C4.145625 0.9590625 4.145625 0.9590625 8.375 1.9375 C9.67896729 2.23708618 9.67896729 2.23708618 11.00927734 2.54272461 C11.6945752 2.70264893 12.37987305 2.86257324 13.0859375 3.02734375 C13.7876709 3.18968506 14.4894043 3.35202637 15.21240234 3.51928711 C17 4 17 4 19 5 C19 11.6 19 18.2 19 25 C16.23625 24.360625 13.4725 23.72125 10.625 23.0625 C9.75568848 22.86277588 8.88637695 22.66305176 7.99072266 22.45727539 C6.96277588 22.21738892 6.96277588 22.21738892 5.9140625 21.97265625 C5.2123291 21.81031494 4.5105957 21.64797363 3.78759766 21.48071289 C2 21 2 21 0 20 C0 13.4 0 6.8 0 0 Z " fill="#464747" transform="translate(160,224)"/>
<path d="M0 0 C1.65 0.268125 3.3 0.53625 5 0.8125 C6.3921875 1.03873047 6.3921875 1.03873047 7.8125 1.26953125 C11.64419622 2.1476283 15.31926745 3.61972529 19 5 C19 11.27 19 17.54 19 24 C12.26481829 22.76679771 6.62496951 21.20832317 0 19 C0 12.73 0 6.46 0 0 Z " fill="#444545" transform="translate(140,239)"/>
<path d="M0 0 C1.1460123 17.63095845 1.1460123 17.63095845 -1.453125 23.00390625 C-3.62910398 25.41302584 -5.93071636 27.2565032 -8.58699036 29.10346985 C-10.77639578 32.04207216 -10.4392356 35.1587069 -10.43237305 38.68432617 C-10.4425647 39.4650499 -10.45275635 40.24577362 -10.46325684 41.05015564 C-10.49345529 43.63116569 -10.50266305 46.21180504 -10.51171875 48.79296875 C-10.52856039 50.58231344 -10.54670993 52.37164626 -10.56611633 54.16096497 C-10.6136785 58.87092378 -10.64344757 63.58083449 -10.66955566 68.29095459 C-10.69932989 73.0970612 -10.74587095 77.90300192 -10.79101562 82.70898438 C-10.87711942 92.13923626 -10.94443317 101.56952222 -11 111 C-11.33 111 -11.66 111 -12 111 C-12.23214264 98.00432844 -12.40960623 85.00915347 -12.51812172 72.01182747 C-12.57021639 65.97588774 -12.64082355 59.94137086 -12.75439453 53.90625 C-12.86339798 48.07707714 -12.92291422 42.24926881 -12.94877243 36.41915512 C-12.9671886 34.19991455 -13.00315368 31.98074512 -13.05730057 29.76208878 C-13.48534705 11.48902524 -13.48534705 11.48902524 -9.77752686 6.35101318 C-3.60694413 0 -3.60694413 0 0 0 Z " fill="#1D1E1E" transform="translate(231,68)"/>
<path d="M0 0 C0.33 0 0.66 0 1 0 C1 46.53 1 93.06 1 141 C4.3 141.66 7.6 142.32 11 143 C12 144 12 144 12.5 146.5625 C11.75046366 151.71556235 8.58172043 154.4029403 5 158 C4.47019531 158.57363281 3.94039062 159.14726562 3.39453125 159.73828125 C2 161 2 161 0 161 C0 107.87 0 54.74 0 0 Z " fill="#1C1D1D" transform="translate(199,233)"/>
<path d="M0 0 C0 0.99 0 1.98 0 3 C-1.26588246 4.19865386 -2.58821613 5.33833026 -3.9375 6.44226074 C-8.27937628 10.6553632 -8.94587614 13.67175406 -9.05882263 19.61071777 C-9.03941116 20.70404419 -9.01999969 21.79737061 -9 22.92382812 C-9.01092178 24.0954248 -9.02184357 25.26702148 -9.03309631 26.47412109 C-9.0597018 30.32739027 -9.03018492 34.17804264 -9 38.03125 C-9.00752092 40.71032704 -9.01816577 43.38920962 -9.03295898 46.0682373 C-9.06102174 52.38644059 -9.04866202 58.70388259 -9.02153492 65.02206373 C-8.99261989 72.21931718 -9.00913884 79.41624643 -9.02934647 86.61350346 C-9.06987672 101.40914286 -9.05376651 116.20439533 -9 131 C-8.28972656 131.13277344 -7.57945312 131.26554688 -6.84765625 131.40234375 C-5.92855469 131.57894531 -5.00945312 131.75554687 -4.0625 131.9375 C-3.14597656 132.11152344 -2.22945312 132.28554688 -1.28515625 132.46484375 C1 133 1 133 2 134 C2.49197221 138.31784122 2.50204112 140.31918778 -0.1171875 143.87109375 C-1.02726563 144.71800781 -1.93734375 145.56492187 -2.875 146.4375 C-3.77992188 147.30246094 -4.68484375 148.16742188 -5.6171875 149.05859375 C-8 151 -8 151 -10 151 C-10.23397746 132.78885281 -10.41012522 114.57809757 -10.51812172 96.36577034 C-10.56960778 87.90869926 -10.63975272 79.45256399 -10.75439453 70.99609375 C-10.85431177 63.62223314 -10.91863891 56.24905041 -10.94088495 48.87453163 C-10.95388274 44.97214219 -10.98425046 41.07169135 -11.05730057 37.16992569 C-11.12562489 33.49046202 -11.14603161 29.81371816 -11.13107681 26.13368034 C-11.13510302 24.1528472 -11.18869404 22.17230484 -11.24420166 20.19224548 C-11.16112748 12.93950414 -10.12235518 9.34971972 -4.92904663 4.12008667 C-3.31568187 2.71201067 -1.6818635 1.32550331 0 0 Z " fill="#1E1F1F" transform="translate(229,228)"/>
<path d="M0 0 C1.40837723 0.34858039 2.80375234 0.75129233 4.1875 1.1875 C5.16074219 1.44015625 6.13398437 1.6928125 7.13671875 1.953125 C9.83379876 2.65761197 12.51204763 3.40552035 15.1875 4.1875 C15.1875 8.17007272 13.88319193 9.07788086 11.1875 11.9375 C6.79925051 16.14803223 6.79925051 16.14803223 2.3125 16.4375 C0.92375489 16.06922954 -0.45070045 15.64547173 -1.8125 15.1875 C-3.81208166 14.66506288 -5.81209769 14.14428602 -7.8125 13.625 C-9.48072271 13.15127915 -11.14796212 12.67401015 -12.8125 12.1875 C-12.0597464 7.49074159 -9.39646967 4.96861823 -6.046875 1.7734375 C-3.8125 0.1875 -3.8125 0.1875 0 0 Z " fill="#6B6C6C" transform="translate(92.8125,30.8125)"/>
<path d="M0 0 C1.40837723 0.34858039 2.80375234 0.75129233 4.1875 1.1875 C5.16074219 1.44015625 6.13398438 1.6928125 7.13671875 1.953125 C9.83379876 2.65761197 12.51204763 3.40552035 15.1875 4.1875 C15.1875 8.17007272 13.88319193 9.07788086 11.1875 11.9375 C6.79925051 16.14803223 6.79925051 16.14803223 2.3125 16.4375 C0.92375489 16.06922954 -0.45070045 15.64547173 -1.8125 15.1875 C-3.81208166 14.66506288 -5.81209769 14.14428602 -7.8125 13.625 C-9.48072271 13.15127915 -11.14796212 12.67401015 -12.8125 12.1875 C-12.0597464 7.49074159 -9.39646967 4.96861823 -6.046875 1.7734375 C-3.8125 0.1875 -3.8125 0.1875 0 0 Z " fill="#6B6C6C" transform="translate(152.8125,206.8125)"/>
<path d="M0 0 C2.77270429 0.61748874 5.54295598 1.24362456 8.3125 1.875 C9.49102539 2.13603516 9.49102539 2.13603516 10.69335938 2.40234375 C11.45068359 2.57636719 12.20800781 2.75039062 12.98828125 2.9296875 C13.68477783 3.08679199 14.38127441 3.24389648 15.09887695 3.40576172 C17 4 17 4 20 6 C16.97154518 10.26469232 13.82223119 14.68929526 9 17 C3.12226733 17.4377035 -2.64776196 15.21083587 -8 13 C-8.66 12.34 -9.32 11.68 -10 11 C-9.36191406 10.37351563 -8.72382813 9.74703125 -8.06640625 9.1015625 C-7.24011719 8.28429687 -6.41382813 7.46703125 -5.5625 6.625 C-4.73878906 5.81289062 -3.91507813 5.00078125 -3.06640625 4.1640625 C-0.96565328 2.17651485 -0.96565328 2.17651485 0 0 Z " fill="#6A6B6B" transform="translate(230,228)"/>
<path d="M0 0 C2.77270429 0.61748874 5.54295598 1.24362456 8.3125 1.875 C9.49102539 2.13603516 9.49102539 2.13603516 10.69335938 2.40234375 C11.45068359 2.57636719 12.20800781 2.75039062 12.98828125 2.9296875 C13.68477783 3.08679199 14.38127441 3.24389648 15.09887695 3.40576172 C17 4 17 4 20 6 C16.97154518 10.26469232 13.82223119 14.68929526 9 17 C3.12226733 17.4377035 -2.64776196 15.21083587 -8 13 C-8.66 12.34 -9.32 11.68 -10 11 C-9.36191406 10.37351562 -8.72382813 9.74703125 -8.06640625 9.1015625 C-7.24011719 8.28429687 -6.41382813 7.46703125 -5.5625 6.625 C-4.73878906 5.81289062 -3.91507813 5.00078125 -3.06640625 4.1640625 C-0.96565328 2.17651485 -0.96565328 2.17651485 0 0 Z " fill="#6A6B6B" transform="translate(230,88)"/>
<path d="M0 0 C3.6328125 1.3515625 3.6328125 1.3515625 5.6328125 3.3515625 C4.99472656 3.97804688 4.35664062 4.60453125 3.69921875 5.25 C2.87292969 6.06726563 2.04664062 6.88453125 1.1953125 7.7265625 C0.37160156 8.53867187 -0.45210937 9.35078125 -1.30078125 10.1875 C-3.40153422 12.17504765 -3.40153422 12.17504765 -4.3671875 14.3515625 C-7.15958723 13.70877241 -9.95109334 13.06247585 -12.7421875 12.4140625 C-13.53625 12.23166016 -14.3303125 12.04925781 -15.1484375 11.86132812 C-15.90898438 11.68408203 -16.66953125 11.50683594 -17.453125 11.32421875 C-18.1548584 11.16187744 -18.8565918 10.99953613 -19.57958984 10.83227539 C-21.3671875 10.3515625 -21.3671875 10.3515625 -23.3671875 9.3515625 C-17.6884253 -2.71923637 -12.00385091 -3.59726271 0 0 Z " fill="#6A6B6B" transform="translate(123.3671875,298.6484375)"/>
<path d="M0 0 C2.79387762 0.61620855 5.58480926 1.24249695 8.375 1.875 C9.56609375 2.13603516 9.56609375 2.13603516 10.78125 2.40234375 C11.92207031 2.66337891 11.92207031 2.66337891 13.0859375 2.9296875 C13.7876709 3.08679199 14.4894043 3.24389648 15.21240234 3.40576172 C17 4 17 4 19 6 C18.36191406 6.62648438 17.72382812 7.25296875 17.06640625 7.8984375 C16.24011719 8.71570312 15.41382812 9.53296875 14.5625 10.375 C13.73878906 11.18710937 12.91507813 11.99921875 12.06640625 12.8359375 C9.96565328 14.82348515 9.96565328 14.82348515 9 17 C6.20612238 16.38379145 3.41519074 15.75750305 0.625 15.125 C-0.56609375 14.86396484 -0.56609375 14.86396484 -1.78125 14.59765625 C-2.92207031 14.33662109 -2.92207031 14.33662109 -4.0859375 14.0703125 C-4.7876709 13.91320801 -5.4894043 13.75610352 -6.21240234 13.59423828 C-8 13 -8 13 -10 11 C-9.36191406 10.37351562 -8.72382812 9.74703125 -8.06640625 9.1015625 C-7.24011719 8.28429688 -6.41382812 7.46703125 -5.5625 6.625 C-4.73878906 5.81289063 -3.91507812 5.00078125 -3.06640625 4.1640625 C-0.96565328 2.17651485 -0.96565328 2.17651485 0 0 Z " fill="#6B6C6C" transform="translate(110,36)"/>
<path d="M0 0 C2.00390625 0.59765625 2.00390625 0.59765625 3.00390625 1.59765625 C3.07649571 3.78405078 3.08764408 5.97266014 3.06640625 8.16015625 C3.05738281 9.35769531 3.04835938 10.55523437 3.0390625 11.7890625 C3.02746094 12.71589844 3.01585938 13.64273438 3.00390625 14.59765625 C-1.08695827 16.27406723 -4.71120393 14.83858815 -8.74609375 13.66015625 C-9.44347656 13.46486328 -10.14085938 13.26957031 -10.859375 13.06835938 C-12.57408348 12.58683165 -14.28544252 12.09340468 -15.99609375 11.59765625 C-15.99609375 7.07245574 -15.56765011 6.4704652 -12.62109375 3.28515625 C-8.40688646 -0.78581323 -5.62781527 -1.02245804 0 0 Z " fill="#6B6C6C" transform="translate(76.99609375,46.40234375)"/>
<path d="M0 0 C1.51395338 0.45601005 3.02053269 0.94216806 4.5 1.5 C4.55386629 3.62472576 4.59273071 5.74983652 4.625 7.875 C4.64820312 9.05835937 4.67140625 10.24171875 4.6953125 11.4609375 C4.5 14.5 4.5 14.5 2.5 16.5 C-3.44 14.85 -9.38 13.2 -15.5 11.5 C-12.1555076 4.81101521 -8.23088903 -1.70697415 0 0 Z " fill="#6B6C6C" transform="translate(55.5,60.5)"/>
<path d="M0 0 C1.48011371 0.30798326 2.95907325 0.621518 4.4375 0.9375 C5.26121094 1.11152344 6.08492187 1.28554688 6.93359375 1.46484375 C9 2 9 2 10 3 C10.09900199 4.97712807 10.12970773 6.95790038 10.125 8.9375 C10.12886719 10.55978516 10.12886719 10.55978516 10.1328125 12.21484375 C10 15 10 15 9 17 C6.20612238 16.38379145 3.41519074 15.75750305 0.625 15.125 C-0.56609375 14.86396484 -0.56609375 14.86396484 -1.78125 14.59765625 C-2.92207031 14.33662109 -2.92207031 14.33662109 -4.0859375 14.0703125 C-4.7876709 13.91320801 -5.4894043 13.75610352 -6.21240234 13.59423828 C-8 13 -8 13 -10 11 C-9.36191406 10.37351562 -8.72382813 9.74703125 -8.06640625 9.1015625 C-7.24011719 8.28429687 -6.41382813 7.46703125 -5.5625 6.625 C-4.73878906 5.81289063 -3.91507813 5.00078125 -3.06640625 4.1640625 C-0.96565328 2.17651485 -0.96565328 2.17651485 0 0 Z " fill="#6B6C6C" transform="translate(170,312)"/>
</svg>
